<?xml version="1.0" encoding="UTF-8" standalone="no"?><svg xmlns="http://www.w3.org/2000/svg" xmlns:xlink="http://www.w3.org/1999/xlink" contentScriptType="application/ecmascript" contentStyleType="text/css" height="475px" preserveAspectRatio="none" style="width:421px;height:475px;background:#FFFFFF;" version="1.1" viewBox="0 0 421 475" width="421px" zoomAndPan="magnify"><defs><filter height="300%" id="f1a7gomd0tzyy2" width="300%" x="-1" y="-1"><feGaussianBlur result="blurOut" stdDeviation="2.0"/><feColorMatrix in="blurOut" result="blurOut2" type="matrix" values="0 0 0 0 0 0 0 0 0 0 0 0 0 0 0 0 0 0 .4 0"/><feOffset dx="4.0" dy="4.0" in="blurOut2" result="blurOut3"/><feBlend in="SourceGraphic" in2="blurOut3" mode="normal"/></filter></defs><g><ellipse cx="207.5" cy="20" fill="#000000" filter="url(#f1a7gomd0tzyy2)" rx="10" ry="10" style="stroke:none;stroke-width:1.0;"/><rect fill="#000000" filter="url(#f1a7gomd0tzyy2)" height="6" rx="2.5" ry="2.5" style="stroke:#000000;stroke-width:1.0;" width="393" x="11" y="71.3989"/><rect fill="#FEFECE" filter="url(#f1a7gomd0tzyy2)" height="33.9688" rx="12.5" ry="12.5" style="stroke:#A80036;stroke-width:1.5;" width="182" x="23" y="97.3989"/><text fill="#000000" font-family="sans-serif" font-size="12" lengthAdjust="spacing" textLength="162" x="33" y="118.5376">eingeparkt/Ticket erstellen</text><rect fill="#FEFECE" filter="url(#f1a7gomd0tzyy2)" height="33.9688" rx="12.5" ry="12.5" style="stroke:#A80036;stroke-width:1.5;" width="159" x="233" y="97.3989"/><text fill="#000000" font-family="sans-serif" font-size="12" lengthAdjust="spacing" textLength="139" x="243" y="118.5376">Einfahrt dokumentieren</text><rect fill="#000000" filter="url(#f1a7gomd0tzyy2)" height="6" rx="2.5" ry="2.5" style="stroke:#000000;stroke-width:1.0;" width="393" x="11" y="151.3677"/><rect fill="#FEFECE" filter="url(#f1a7gomd0tzyy2)" height="33.9688" rx="12.5" ry="12.5" style="stroke:#A80036;stroke-width:1.5;" width="176" x="119.5" y="233.0781"/><text fill="#000000" font-family="sans-serif" font-size="12" lengthAdjust="spacing" textLength="156" x="129.5" y="254.2168">Bisherige Kosten aufrufen</text><polygon fill="#FEFECE" filter="url(#f1a7gomd0tzyy2)" points="207.5,177.3677,207.5,177.3677,219.5,189.3677,207.5,201.3677,207.5,201.3677,195.5,189.3677,207.5,177.3677" style="stroke:#A80036;stroke-width:1.5;"/><text fill="#000000" font-family="sans-serif" font-size="11" lengthAdjust="spacing" textLength="159" x="211.5" y="211.5781">Bisherhige Kosten abfragen</text><rect fill="#000000" filter="url(#f1a7gomd0tzyy2)" height="6" rx="2.5" ry="2.5" style="stroke:#000000;stroke-width:1.0;" width="358" x="28.5" y="330.4458"/><rect fill="#FEFECE" filter="url(#f1a7gomd0tzyy2)" height="33.9688" rx="12.5" ry="12.5" style="stroke:#A80036;stroke-width:1.5;" width="138" x="42.5" y="356.4458"/><text fill="#000000" font-family="sans-serif" font-size="12" lengthAdjust="spacing" textLength="118" x="52.5" y="377.5845">ausfahren/bezahlen</text><rect fill="#FEFECE" filter="url(#f1a7gomd0tzyy2)" height="33.9688" rx="12.5" ry="12.5" style="stroke:#A80036;stroke-width:1.5;" width="164" x="208.5" y="356.4458"/><text fill="#000000" font-family="sans-serif" font-size="12" lengthAdjust="spacing" textLength="144" x="218.5" y="377.5845">Ausfahrt dokumentieren</text><rect fill="#000000" filter="url(#f1a7gomd0tzyy2)" height="6" rx="2.5" ry="2.5" style="stroke:#000000;stroke-width:1.0;" width="358" x="28.5" y="410.4146"/><ellipse cx="207.5" cy="447.4146" fill="#FFFFFF" filter="url(#f1a7gomd0tzyy2)" rx="11" ry="11" style="stroke:#000000;stroke-width:1.0;"/><ellipse cx="207.5" cy="447.4146" fill="#000000" rx="6" ry="6" style="stroke:#7F7F7F;stroke-width:1.0;"/><line style="stroke:#A80036;stroke-width:1.5;" x1="114" x2="114" y1="77.3989" y2="97.3989"/><polygon fill="#A80036" points="110,87.3989,114,97.3989,118,87.3989,114,91.3989" style="stroke:#A80036;stroke-width:1.0;"/><line style="stroke:#A80036;stroke-width:1.5;" x1="312.5" x2="312.5" y1="77.3989" y2="97.3989"/><polygon fill="#A80036" points="308.5,87.3989,312.5,97.3989,316.5,87.3989,312.5,91.3989" style="stroke:#A80036;stroke-width:1.0;"/><line style="stroke:#A80036;stroke-width:1.5;" x1="114" x2="114" y1="131.3677" y2="151.3677"/><polygon fill="#A80036" points="110,141.3677,114,151.3677,118,141.3677,114,145.3677" style="stroke:#A80036;stroke-width:1.0;"/><line style="stroke:#A80036;stroke-width:1.5;" x1="312.5" x2="312.5" y1="131.3677" y2="151.3677"/><polygon fill="#A80036" points="308.5,141.3677,312.5,151.3677,316.5,141.3677,312.5,145.3677" style="stroke:#A80036;stroke-width:1.0;"/><line style="stroke:#A80036;stroke-width:1.5;" x1="207.5" x2="207.5" y1="30" y2="71.3989"/><polygon fill="#A80036" points="203.5,61.3989,207.5,71.3989,211.5,61.3989,207.5,65.3989" style="stroke:#A80036;stroke-width:1.0;"/><text fill="#000000" font-family="sans-serif" font-size="11" lengthAdjust="spacing" textLength="57" x="211.5" y="51.3047">einparken</text><line style="stroke:#A80036;stroke-width:1.5;" x1="207.5" x2="207.5" y1="201.3677" y2="233.0781"/><polygon fill="#A80036" points="203.5,223.0781,207.5,233.0781,211.5,223.0781,207.5,227.0781" style="stroke:#A80036;stroke-width:1.0;"/><line style="stroke:#A80036;stroke-width:1.5;" x1="207.5" x2="207.5" y1="267.0469" y2="277.0469"/><line style="stroke:#A80036;stroke-width:1.5;" x1="207.5" x2="307.5" y1="277.0469" y2="277.0469"/><polygon fill="#A80036" points="303.5,241.6602,307.5,231.6602,311.5,241.6602,307.5,237.6602" style="stroke:#A80036;stroke-width:1.5;"/><line style="stroke:#A80036;stroke-width:1.5;" x1="307.5" x2="307.5" y1="189.3677" y2="277.0469"/><line style="stroke:#A80036;stroke-width:1.5;" x1="307.5" x2="219.5" y1="189.3677" y2="189.3677"/><polygon fill="#A80036" points="229.5,185.3677,219.5,189.3677,229.5,193.3677,225.5,189.3677" style="stroke:#A80036;stroke-width:1.0;"/><line style="stroke:#A80036;stroke-width:1.5;" x1="195.5" x2="107.5" y1="189.3677" y2="189.3677"/><polygon fill="#A80036" points="103.5,227.6602,107.5,237.6602,111.5,227.6602,107.5,231.6602" style="stroke:#A80036;stroke-width:1.5;"/><line style="stroke:#A80036;stroke-width:1.5;" x1="107.5" x2="107.5" y1="189.3677" y2="289.0469"/><line style="stroke:#A80036;stroke-width:1.5;" x1="107.5" x2="207.5" y1="289.0469" y2="289.0469"/><line style="stroke:#A80036;stroke-width:1.5;" x1="207.5" x2="207.5" y1="157.3677" y2="177.3677"/><polygon fill="#A80036" points="203.5,167.3677,207.5,177.3677,211.5,167.3677,207.5,171.3677" style="stroke:#A80036;stroke-width:1.0;"/><line style="stroke:#A80036;stroke-width:1.5;" x1="111.5" x2="111.5" y1="336.4458" y2="356.4458"/><polygon fill="#A80036" points="107.5,346.4458,111.5,356.4458,115.5,346.4458,111.5,350.4458" style="stroke:#A80036;stroke-width:1.0;"/><line style="stroke:#A80036;stroke-width:1.5;" x1="290.5" x2="290.5" y1="336.4458" y2="356.4458"/><polygon fill="#A80036" points="286.5,346.4458,290.5,356.4458,294.5,346.4458,290.5,350.4458" style="stroke:#A80036;stroke-width:1.0;"/><line style="stroke:#A80036;stroke-width:1.5;" x1="111.5" x2="111.5" y1="390.4146" y2="410.4146"/><polygon fill="#A80036" points="107.5,400.4146,111.5,410.4146,115.5,400.4146,111.5,404.4146" style="stroke:#A80036;stroke-width:1.0;"/><line style="stroke:#A80036;stroke-width:1.5;" x1="290.5" x2="290.5" y1="390.4146" y2="410.4146"/><polygon fill="#A80036" points="286.5,400.4146,290.5,410.4146,294.5,400.4146,290.5,404.4146" style="stroke:#A80036;stroke-width:1.0;"/><line style="stroke:#A80036;stroke-width:1.5;" x1="207.5" x2="207.5" y1="289.0469" y2="330.4458"/><polygon fill="#A80036" points="203.5,320.4458,207.5,330.4458,211.5,320.4458,207.5,324.4458" style="stroke:#A80036;stroke-width:1.0;"/><text fill="#000000" font-family="sans-serif" font-size="11" lengthAdjust="spacing" textLength="59" x="211.5" y="310.3516">ausparken</text><line style="stroke:#A80036;stroke-width:1.5;" x1="207.5" x2="207.5" y1="416.4146" y2="436.4146"/><polygon fill="#A80036" points="203.5,426.4146,207.5,436.4146,211.5,426.4146,207.5,430.4146" style="stroke:#A80036;stroke-width:1.0;"/><!--MD5=[c1c08b9561afbb9684cacca7ab1cd2de]
@startuml
start
->einparken;
fork
:eingeparkt/Ticket erstellen;
fork again
:Einfahrt dokumentieren;
end fork
while () is (Bisherhige Kosten abfragen)
  :Bisherige Kosten aufrufen;
endwhile
->ausparken;
fork
:ausfahren/bezahlen;
fork again
:Ausfahrt dokumentieren;
end fork

stop
@enduml

PlantUML version 1.2021.9beta2(Unknown compile time)
(GPL source distribution)
Java Runtime: Java(TM) SE Runtime Environment
JVM: Java HotSpot(TM) 64-Bit Server VM
Default Encoding: UTF-8
Language: en
Country: US
--></g></svg>