<?xml version="1.0" encoding="UTF-8" standalone="no"?><svg xmlns="http://www.w3.org/2000/svg" xmlns:xlink="http://www.w3.org/1999/xlink" contentScriptType="application/ecmascript" contentStyleType="text/css" height="526px" preserveAspectRatio="none" style="width:1471px;height:526px;background:#FFFFFF;" version="1.1" viewBox="0 0 1471 526" width="1471px" zoomAndPan="magnify"><defs><filter height="300%" id="fpptlt8awvlbo" width="300%" x="-1" y="-1"><feGaussianBlur result="blurOut" stdDeviation="2.0"/><feColorMatrix in="blurOut" result="blurOut2" type="matrix" values="0 0 0 0 0 0 0 0 0 0 0 0 0 0 0 0 0 0 .4 0"/><feOffset dx="4.0" dy="4.0" in="blurOut2" result="blurOut3"/><feBlend in="SourceGraphic" in2="blurOut3" mode="normal"/></filter></defs><g><line style="stroke:#A80036;stroke-width:1.0;stroke-dasharray:5.0,5.0;" x1="30" x2="30" y1="88.2969" y2="441.7578"/><line style="stroke:#A80036;stroke-width:1.0;stroke-dasharray:5.0,5.0;" x1="264" x2="264" y1="88.2969" y2="441.7578"/><line style="stroke:#A80036;stroke-width:1.0;stroke-dasharray:5.0,5.0;" x1="582.5" x2="582.5" y1="88.2969" y2="441.7578"/><line style="stroke:#A80036;stroke-width:1.0;stroke-dasharray:5.0,5.0;" x1="873" x2="873" y1="88.2969" y2="441.7578"/><line style="stroke:#A80036;stroke-width:1.0;stroke-dasharray:5.0,5.0;" x1="1192" x2="1192" y1="88.2969" y2="441.7578"/><line style="stroke:#A80036;stroke-width:1.0;stroke-dasharray:5.0,5.0;" x1="1441" x2="1441" y1="88.2969" y2="441.7578"/><text fill="#000000" font-family="sans-serif" font-size="14" lengthAdjust="spacing" textLength="45" x="5" y="84.9951">Kunde</text><ellipse cx="30.5" cy="15" fill="#FEFECE" filter="url(#fpptlt8awvlbo)" rx="8" ry="8" style="stroke:#A80036;stroke-width:2.0;"/><path d="M30.5,23 L30.5,50 M17.5,31 L43.5,31 M30.5,50 L17.5,65 M30.5,50 L43.5,65 " fill="none" filter="url(#fpptlt8awvlbo)" style="stroke:#A80036;stroke-width:2.0;"/><text fill="#000000" font-family="sans-serif" font-size="14" lengthAdjust="spacing" textLength="45" x="5" y="453.7529">Kunde</text><ellipse cx="30.5" cy="467.0547" fill="#FEFECE" filter="url(#fpptlt8awvlbo)" rx="8" ry="8" style="stroke:#A80036;stroke-width:2.0;"/><path d="M30.5,475.0547 L30.5,502.0547 M17.5,483.0547 L43.5,483.0547 M30.5,502.0547 L17.5,517.0547 M30.5,502.0547 L43.5,517.0547 " fill="none" filter="url(#fpptlt8awvlbo)" style="stroke:#A80036;stroke-width:2.0;"/><text fill="#000000" font-family="sans-serif" font-size="14" lengthAdjust="spacing" textLength="89" x="217" y="84.9951">Kundensicht</text><path d="M244,44 L244,68 M244,56 L261,56 " fill="none" filter="url(#fpptlt8awvlbo)" style="stroke:#A80036;stroke-width:2.0;"/><ellipse cx="273" cy="56" fill="#FEFECE" filter="url(#fpptlt8awvlbo)" rx="12" ry="12" style="stroke:#A80036;stroke-width:2.0;"/><text fill="#000000" font-family="sans-serif" font-size="14" lengthAdjust="spacing" textLength="89" x="217" y="453.7529">Kundensicht</text><path d="M244,461.0547 L244,485.0547 M244,473.0547 L261,473.0547 " fill="none" filter="url(#fpptlt8awvlbo)" style="stroke:#A80036;stroke-width:2.0;"/><ellipse cx="273" cy="473.0547" fill="#FEFECE" filter="url(#fpptlt8awvlbo)" rx="12" ry="12" style="stroke:#A80036;stroke-width:2.0;"/><text fill="#000000" font-family="sans-serif" font-size="14" lengthAdjust="spacing" textLength="52" x="553.5" y="84.9951">Servlet</text><ellipse cx="582.5" cy="56" fill="#FEFECE" filter="url(#fpptlt8awvlbo)" rx="12" ry="12" style="stroke:#A80036;stroke-width:2.0;"/><polygon fill="#A80036" points="578.5,44,584.5,39,582.5,44,584.5,49,578.5,44" style="stroke:#A80036;stroke-width:1.0;"/><text fill="#000000" font-family="sans-serif" font-size="14" lengthAdjust="spacing" textLength="52" x="553.5" y="453.7529">Servlet</text><ellipse cx="582.5" cy="473.0547" fill="#FEFECE" filter="url(#fpptlt8awvlbo)" rx="12" ry="12" style="stroke:#A80036;stroke-width:2.0;"/><polygon fill="#A80036" points="578.5,461.0547,584.5,456.0547,582.5,461.0547,584.5,466.0547,578.5,461.0547" style="stroke:#A80036;stroke-width:1.0;"/><text fill="#000000" font-family="sans-serif" font-size="14" lengthAdjust="spacing" textLength="123" x="809" y="84.9951">StatisticsHandler</text><ellipse cx="873.5" cy="56" fill="#FEFECE" filter="url(#fpptlt8awvlbo)" rx="12" ry="12" style="stroke:#A80036;stroke-width:2.0;"/><polygon fill="#A80036" points="869.5,44,875.5,39,873.5,44,875.5,49,869.5,44" style="stroke:#A80036;stroke-width:1.0;"/><text fill="#000000" font-family="sans-serif" font-size="14" lengthAdjust="spacing" textLength="123" x="809" y="453.7529">StatisticsHandler</text><ellipse cx="873.5" cy="473.0547" fill="#FEFECE" filter="url(#fpptlt8awvlbo)" rx="12" ry="12" style="stroke:#A80036;stroke-width:2.0;"/><polygon fill="#A80036" points="869.5,461.0547,875.5,456.0547,873.5,461.0547,875.5,466.0547,869.5,461.0547" style="stroke:#A80036;stroke-width:1.0;"/><text fill="#000000" font-family="sans-serif" font-size="14" lengthAdjust="spacing" textLength="81" x="1149" y="84.9951">ServerData</text><ellipse cx="1192.5" cy="56" fill="#FEFECE" filter="url(#fpptlt8awvlbo)" rx="12" ry="12" style="stroke:#A80036;stroke-width:2.0;"/><polygon fill="#A80036" points="1188.5,44,1194.5,39,1192.5,44,1194.5,49,1188.5,44" style="stroke:#A80036;stroke-width:1.0;"/><text fill="#000000" font-family="sans-serif" font-size="14" lengthAdjust="spacing" textLength="81" x="1149" y="453.7529">ServerData</text><ellipse cx="1192.5" cy="473.0547" fill="#FEFECE" filter="url(#fpptlt8awvlbo)" rx="12" ry="12" style="stroke:#A80036;stroke-width:2.0;"/><polygon fill="#A80036" points="1188.5,461.0547,1194.5,456.0547,1192.5,461.0547,1194.5,466.0547,1188.5,461.0547" style="stroke:#A80036;stroke-width:1.0;"/><text fill="#000000" font-family="sans-serif" font-size="14" lengthAdjust="spacing" textLength="51" x="1413" y="84.9951">History</text><ellipse cx="1441.5" cy="56" fill="#FEFECE" filter="url(#fpptlt8awvlbo)" rx="12" ry="12" style="stroke:#A80036;stroke-width:2.0;"/><line style="stroke:#A80036;stroke-width:2.0;" x1="1429.5" x2="1453.5" y1="70" y2="70"/><text fill="#000000" font-family="sans-serif" font-size="14" lengthAdjust="spacing" textLength="51" x="1413" y="453.7529">History</text><ellipse cx="1441.5" cy="473.0547" fill="#FEFECE" filter="url(#fpptlt8awvlbo)" rx="12" ry="12" style="stroke:#A80036;stroke-width:2.0;"/><line style="stroke:#A80036;stroke-width:2.0;" x1="1429.5" x2="1453.5" y1="487.0547" y2="487.0547"/><polygon fill="#A80036" points="252.5,115.4297,262.5,119.4297,252.5,123.4297,256.5,119.4297" style="stroke:#A80036;stroke-width:1.0;"/><line style="stroke:#A80036;stroke-width:1.0;" x1="30.5" x2="258.5" y1="119.4297" y2="119.4297"/><text fill="#000000" font-family="sans-serif" font-size="13" lengthAdjust="spacing" textLength="163" x="37.5" y="114.3638">Fragt bisherige Kosten ab</text><polygon fill="#A80036" points="570.5,144.5625,580.5,148.5625,570.5,152.5625,574.5,148.5625" style="stroke:#A80036;stroke-width:1.0;"/><line style="stroke:#A80036;stroke-width:1.0;" x1="264.5" x2="576.5" y1="148.5625" y2="148.5625"/><text fill="#000000" font-family="sans-serif" font-size="13" lengthAdjust="spacing" textLength="119" x="271.5" y="143.4966">Fragt Controller an</text><polygon fill="#A80036" points="861.5,173.6953,871.5,177.6953,861.5,181.6953,865.5,177.6953" style="stroke:#A80036;stroke-width:1.0;"/><line style="stroke:#A80036;stroke-width:1.0;" x1="582.5" x2="867.5" y1="177.6953" y2="177.6953"/><text fill="#000000" font-family="sans-serif" font-size="13" lengthAdjust="spacing" textLength="267" x="589.5" y="172.6294">Servlet leitet Anfrage an StatisticsHandler</text><polygon fill="#A80036" points="1180.5,202.8281,1190.5,206.8281,1180.5,210.8281,1184.5,206.8281" style="stroke:#A80036;stroke-width:1.0;"/><line style="stroke:#A80036;stroke-width:1.0;" x1="873.5" x2="1186.5" y1="206.8281" y2="206.8281"/><text fill="#000000" font-family="sans-serif" font-size="13" lengthAdjust="spacing" textLength="295" x="880.5" y="201.7622">StatisticsHandler leitet Anfrage an ServerData</text><polygon fill="#A80036" points="1429.5,231.9609,1439.5,235.9609,1429.5,239.9609,1433.5,235.9609" style="stroke:#A80036;stroke-width:1.0;"/><line style="stroke:#A80036;stroke-width:1.0;" x1="1192.5" x2="1435.5" y1="235.9609" y2="235.9609"/><text fill="#000000" font-family="sans-serif" font-size="13" lengthAdjust="spacing" textLength="203" x="1199.5" y="230.895">Zeitpunkt der Einfahrt abfragen</text><polygon fill="#A80036" points="1203.5,261.0938,1193.5,265.0938,1203.5,269.0938,1199.5,265.0938" style="stroke:#A80036;stroke-width:1.0;"/><line style="stroke:#A80036;stroke-width:1.0;" x1="1197.5" x2="1440.5" y1="265.0938" y2="265.0938"/><text fill="#000000" font-family="sans-serif" font-size="13" lengthAdjust="spacing" textLength="225" x="1209.5" y="260.0278">Zeitpunkt der Einfahrt weitergeben</text><polygon fill="#A80036" points="884.5,290.2266,874.5,294.2266,884.5,298.2266,880.5,294.2266" style="stroke:#A80036;stroke-width:1.0;"/><line style="stroke:#A80036;stroke-width:1.0;" x1="878.5" x2="1191.5" y1="294.2266" y2="294.2266"/><text fill="#000000" font-family="sans-serif" font-size="13" lengthAdjust="spacing" textLength="225" x="890.5" y="289.1606">Zeitpunkt der Einfahrt weitergeben</text><line style="stroke:#A80036;stroke-width:1.0;" x1="873.5" x2="915.5" y1="323.3594" y2="323.3594"/><line style="stroke:#A80036;stroke-width:1.0;" x1="915.5" x2="915.5" y1="323.3594" y2="336.3594"/><line style="stroke:#A80036;stroke-width:1.0;" x1="874.5" x2="915.5" y1="336.3594" y2="336.3594"/><polygon fill="#A80036" points="884.5,332.3594,874.5,336.3594,884.5,340.3594,880.5,336.3594" style="stroke:#A80036;stroke-width:1.0;"/><text fill="#000000" font-family="sans-serif" font-size="13" lengthAdjust="spacing" textLength="175" x="880.5" y="318.2935">Bisherige Kosten errechnen</text><polygon fill="#A80036" points="593.5,361.4922,583.5,365.4922,593.5,369.4922,589.5,365.4922" style="stroke:#A80036;stroke-width:1.0;"/><line style="stroke:#A80036;stroke-width:1.0;" x1="587.5" x2="872.5" y1="365.4922" y2="365.4922"/><text fill="#000000" font-family="sans-serif" font-size="13" lengthAdjust="spacing" textLength="190" x="599.5" y="360.4263">Bisherige Kosten weitergeben</text><polygon fill="#A80036" points="275.5,390.625,265.5,394.625,275.5,398.625,271.5,394.625" style="stroke:#A80036;stroke-width:1.0;"/><line style="stroke:#A80036;stroke-width:1.0;" x1="269.5" x2="581.5" y1="394.625" y2="394.625"/><text fill="#000000" font-family="sans-serif" font-size="13" lengthAdjust="spacing" textLength="294" x="281.5" y="389.5591">Rueckmeldung: Bisherige Kosten weitergeben</text><polygon fill="#A80036" points="41.5,419.7578,31.5,423.7578,41.5,427.7578,37.5,423.7578" style="stroke:#A80036;stroke-width:1.0;"/><line style="stroke:#A80036;stroke-width:1.0;stroke-dasharray:2.0,2.0;" x1="35.5" x2="263.5" y1="423.7578" y2="423.7578"/><text fill="#000000" font-family="sans-serif" font-size="13" lengthAdjust="spacing" textLength="210" x="47.5" y="418.6919">Rueckmeldung: Bisherige Kosten</text><!--MD5=[007d19fa91bd2fa8bfcba972d88abb8d]
@startuml
actor Kunde


boundary Kundensicht
control Servlet
control StatisticsHandler
control ServerData
entity History


Kunde-> Kundensicht: Fragt bisherige Kosten ab

Kundensicht-> Servlet: Fragt Controller an

Servlet-> StatisticsHandler: Servlet leitet Anfrage an StatisticsHandler

StatisticsHandler-> ServerData: StatisticsHandler leitet Anfrage an ServerData

ServerData-> History: Zeitpunkt der Einfahrt abfragen

History-> ServerData: Zeitpunkt der Einfahrt weitergeben

ServerData->StatisticsHandler: Zeitpunkt der Einfahrt weitergeben

StatisticsHandler->StatisticsHandler: Bisherige Kosten errechnen

StatisticsHandler-> Servlet: Bisherige Kosten weitergeben

Servlet-> Kundensicht: Rueckmeldung: Bisherige Kosten weitergeben

Kundensicht- -> Kunde: Rueckmeldung: Bisherige Kosten
@enduml

PlantUML version 1.2021.9beta2(Unknown compile time)
(GPL source distribution)
Java Runtime: Java(TM) SE Runtime Environment
JVM: Java HotSpot(TM) 64-Bit Server VM
Default Encoding: UTF-8
Language: en
Country: US
--></g></svg>