<?xml version="1.0" encoding="UTF-8" standalone="no"?><svg xmlns="http://www.w3.org/2000/svg" xmlns:xlink="http://www.w3.org/1999/xlink" contentScriptType="application/ecmascript" contentStyleType="text/css" height="526px" preserveAspectRatio="none" style="width:1553px;height:526px;background:#FFFFFF;" version="1.1" viewBox="0 0 1553 526" width="1553px" zoomAndPan="magnify"><defs><filter height="300%" id="f5of45bgg4fb2" width="300%" x="-1" y="-1"><feGaussianBlur result="blurOut" stdDeviation="2.0"/><feColorMatrix in="blurOut" result="blurOut2" type="matrix" values="0 0 0 0 0 0 0 0 0 0 0 0 0 0 0 0 0 0 .4 0"/><feOffset dx="4.0" dy="4.0" in="blurOut2" result="blurOut3"/><feBlend in="SourceGraphic" in2="blurOut3" mode="normal"/></filter></defs><g><line style="stroke:#A80036;stroke-width:1.0;stroke-dasharray:5.0,5.0;" x1="70" x2="70" y1="88.2969" y2="441.7578"/><line style="stroke:#A80036;stroke-width:1.0;stroke-dasharray:5.0,5.0;" x1="309" x2="309" y1="88.2969" y2="441.7578"/><line style="stroke:#A80036;stroke-width:1.0;stroke-dasharray:5.0,5.0;" x1="632" x2="632" y1="88.2969" y2="441.7578"/><line style="stroke:#A80036;stroke-width:1.0;stroke-dasharray:5.0,5.0;" x1="922.5" x2="922.5" y1="88.2969" y2="441.7578"/><line style="stroke:#A80036;stroke-width:1.0;stroke-dasharray:5.0,5.0;" x1="1304.5" x2="1304.5" y1="88.2969" y2="441.7578"/><line style="stroke:#A80036;stroke-width:1.0;stroke-dasharray:5.0,5.0;" x1="1523.5" x2="1523.5" y1="88.2969" y2="441.7578"/><text fill="#000000" font-family="sans-serif" font-size="14" lengthAdjust="spacing" textLength="124" x="5" y="84.9951">Parkhausbesitzer</text><ellipse cx="70" cy="15" fill="#FEFECE" filter="url(#f5of45bgg4fb2)" rx="8" ry="8" style="stroke:#A80036;stroke-width:2.0;"/><path d="M70,23 L70,50 M57,31 L83,31 M70,50 L57,65 M70,50 L83,65 " fill="none" filter="url(#f5of45bgg4fb2)" style="stroke:#A80036;stroke-width:2.0;"/><text fill="#000000" font-family="sans-serif" font-size="14" lengthAdjust="spacing" textLength="124" x="5" y="453.7529">Parkhausbesitzer</text><ellipse cx="70" cy="467.0547" fill="#FEFECE" filter="url(#f5of45bgg4fb2)" rx="8" ry="8" style="stroke:#A80036;stroke-width:2.0;"/><path d="M70,475.0547 L70,502.0547 M57,483.0547 L83,483.0547 M70,502.0547 L57,517.0547 M70,502.0547 L83,517.0547 " fill="none" filter="url(#f5of45bgg4fb2)" style="stroke:#A80036;stroke-width:2.0;"/><text fill="#000000" font-family="sans-serif" font-size="14" lengthAdjust="spacing" textLength="164" x="224" y="84.9951">Tageseinnahmen_sicht</text><path d="M288.5,44 L288.5,68 M288.5,56 L305.5,56 " fill="none" filter="url(#f5of45bgg4fb2)" style="stroke:#A80036;stroke-width:2.0;"/><ellipse cx="317.5" cy="56" fill="#FEFECE" filter="url(#f5of45bgg4fb2)" rx="12" ry="12" style="stroke:#A80036;stroke-width:2.0;"/><text fill="#000000" font-family="sans-serif" font-size="14" lengthAdjust="spacing" textLength="164" x="224" y="453.7529">Tageseinnahmen_sicht</text><path d="M288.5,461.0547 L288.5,485.0547 M288.5,473.0547 L305.5,473.0547 " fill="none" filter="url(#f5of45bgg4fb2)" style="stroke:#A80036;stroke-width:2.0;"/><ellipse cx="317.5" cy="473.0547" fill="#FEFECE" filter="url(#f5of45bgg4fb2)" rx="12" ry="12" style="stroke:#A80036;stroke-width:2.0;"/><text fill="#000000" font-family="sans-serif" font-size="14" lengthAdjust="spacing" textLength="52" x="603" y="84.9951">Servlet</text><ellipse cx="632" cy="56" fill="#FEFECE" filter="url(#f5of45bgg4fb2)" rx="12" ry="12" style="stroke:#A80036;stroke-width:2.0;"/><polygon fill="#A80036" points="628,44,634,39,632,44,634,49,628,44" style="stroke:#A80036;stroke-width:1.0;"/><text fill="#000000" font-family="sans-serif" font-size="14" lengthAdjust="spacing" textLength="52" x="603" y="453.7529">Servlet</text><ellipse cx="632" cy="473.0547" fill="#FEFECE" filter="url(#f5of45bgg4fb2)" rx="12" ry="12" style="stroke:#A80036;stroke-width:2.0;"/><polygon fill="#A80036" points="628,461.0547,634,456.0547,632,461.0547,634,466.0547,628,461.0547" style="stroke:#A80036;stroke-width:1.0;"/><text fill="#000000" font-family="sans-serif" font-size="14" lengthAdjust="spacing" textLength="123" x="858.5" y="84.9951">StatisticsHandler</text><ellipse cx="923" cy="56" fill="#FEFECE" filter="url(#f5of45bgg4fb2)" rx="12" ry="12" style="stroke:#A80036;stroke-width:2.0;"/><polygon fill="#A80036" points="919,44,925,39,923,44,925,49,919,44" style="stroke:#A80036;stroke-width:1.0;"/><text fill="#000000" font-family="sans-serif" font-size="14" lengthAdjust="spacing" textLength="123" x="858.5" y="453.7529">StatisticsHandler</text><ellipse cx="923" cy="473.0547" fill="#FEFECE" filter="url(#f5of45bgg4fb2)" rx="12" ry="12" style="stroke:#A80036;stroke-width:2.0;"/><polygon fill="#A80036" points="919,461.0547,925,456.0547,923,461.0547,925,466.0547,919,461.0547" style="stroke:#A80036;stroke-width:1.0;"/><text fill="#000000" font-family="sans-serif" font-size="14" lengthAdjust="spacing" textLength="81" x="1261.5" y="84.9951">ServerData</text><ellipse cx="1305" cy="56" fill="#FEFECE" filter="url(#f5of45bgg4fb2)" rx="12" ry="12" style="stroke:#A80036;stroke-width:2.0;"/><polygon fill="#A80036" points="1301,44,1307,39,1305,44,1307,49,1301,44" style="stroke:#A80036;stroke-width:1.0;"/><text fill="#000000" font-family="sans-serif" font-size="14" lengthAdjust="spacing" textLength="81" x="1261.5" y="453.7529">ServerData</text><ellipse cx="1305" cy="473.0547" fill="#FEFECE" filter="url(#f5of45bgg4fb2)" rx="12" ry="12" style="stroke:#A80036;stroke-width:2.0;"/><polygon fill="#A80036" points="1301,461.0547,1307,456.0547,1305,461.0547,1307,466.0547,1301,461.0547" style="stroke:#A80036;stroke-width:1.0;"/><text fill="#000000" font-family="sans-serif" font-size="14" lengthAdjust="spacing" textLength="51" x="1495.5" y="84.9951">History</text><ellipse cx="1524" cy="56" fill="#FEFECE" filter="url(#f5of45bgg4fb2)" rx="12" ry="12" style="stroke:#A80036;stroke-width:2.0;"/><line style="stroke:#A80036;stroke-width:2.0;" x1="1512" x2="1536" y1="70" y2="70"/><text fill="#000000" font-family="sans-serif" font-size="14" lengthAdjust="spacing" textLength="51" x="1495.5" y="453.7529">History</text><ellipse cx="1524" cy="473.0547" fill="#FEFECE" filter="url(#f5of45bgg4fb2)" rx="12" ry="12" style="stroke:#A80036;stroke-width:2.0;"/><line style="stroke:#A80036;stroke-width:2.0;" x1="1512" x2="1536" y1="487.0547" y2="487.0547"/><polygon fill="#A80036" points="297,115.4297,307,119.4297,297,123.4297,301,119.4297" style="stroke:#A80036;stroke-width:1.0;"/><line style="stroke:#A80036;stroke-width:1.0;" x1="70" x2="303" y1="119.4297" y2="119.4297"/><text fill="#000000" font-family="sans-serif" font-size="13" lengthAdjust="spacing" textLength="168" x="77" y="114.3638">Fragt Tageseinnahmen ab</text><polygon fill="#A80036" points="620,144.5625,630,148.5625,620,152.5625,624,148.5625" style="stroke:#A80036;stroke-width:1.0;"/><line style="stroke:#A80036;stroke-width:1.0;" x1="309" x2="626" y1="148.5625" y2="148.5625"/><text fill="#000000" font-family="sans-serif" font-size="13" lengthAdjust="spacing" textLength="119" x="316" y="143.4966">Fragt Controller an</text><polygon fill="#A80036" points="911,173.6953,921,177.6953,911,181.6953,915,177.6953" style="stroke:#A80036;stroke-width:1.0;"/><line style="stroke:#A80036;stroke-width:1.0;" x1="632" x2="917" y1="177.6953" y2="177.6953"/><text fill="#000000" font-family="sans-serif" font-size="13" lengthAdjust="spacing" textLength="267" x="639" y="172.6294">Servlet leitet Anfrage an StatisticsHandler</text><polygon fill="#A80036" points="1293,202.8281,1303,206.8281,1293,210.8281,1297,206.8281" style="stroke:#A80036;stroke-width:1.0;"/><line style="stroke:#A80036;stroke-width:1.0;" x1="923" x2="1299" y1="206.8281" y2="206.8281"/><text fill="#000000" font-family="sans-serif" font-size="13" lengthAdjust="spacing" textLength="358" x="930" y="201.7622">Fragt Daten zu den Tageseinnahmen bei ServerData an</text><polygon fill="#A80036" points="1512,231.9609,1522,235.9609,1512,239.9609,1516,235.9609" style="stroke:#A80036;stroke-width:1.0;"/><line style="stroke:#A80036;stroke-width:1.0;" x1="1305" x2="1518" y1="235.9609" y2="235.9609"/><text fill="#000000" font-family="sans-serif" font-size="13" lengthAdjust="spacing" textLength="173" x="1312" y="230.895">Tageseinnahmen abfragen</text><polygon fill="#A80036" points="1316,261.0938,1306,265.0938,1316,269.0938,1312,265.0938" style="stroke:#A80036;stroke-width:1.0;"/><line style="stroke:#A80036;stroke-width:1.0;" x1="1310" x2="1523" y1="265.0938" y2="265.0938"/><text fill="#000000" font-family="sans-serif" font-size="13" lengthAdjust="spacing" textLength="195" x="1322" y="260.0278">Tageseinnahmen weitergeben</text><polygon fill="#A80036" points="934,290.2266,924,294.2266,934,298.2266,930,294.2266" style="stroke:#A80036;stroke-width:1.0;"/><line style="stroke:#A80036;stroke-width:1.0;" x1="928" x2="1304" y1="294.2266" y2="294.2266"/><text fill="#000000" font-family="sans-serif" font-size="13" lengthAdjust="spacing" textLength="195" x="940" y="289.1606">Tageseinnahmen weitergeben</text><line style="stroke:#A80036;stroke-width:1.0;" x1="923" x2="965" y1="323.3594" y2="323.3594"/><line style="stroke:#A80036;stroke-width:1.0;" x1="965" x2="965" y1="323.3594" y2="336.3594"/><line style="stroke:#A80036;stroke-width:1.0;" x1="924" x2="965" y1="336.3594" y2="336.3594"/><polygon fill="#A80036" points="934,332.3594,924,336.3594,934,340.3594,930,336.3594" style="stroke:#A80036;stroke-width:1.0;"/><text fill="#000000" font-family="sans-serif" font-size="13" lengthAdjust="spacing" textLength="180" x="930" y="318.2935">Tageseinnahmen errechnen</text><polygon fill="#A80036" points="643,361.4922,633,365.4922,643,369.4922,639,365.4922" style="stroke:#A80036;stroke-width:1.0;"/><line style="stroke:#A80036;stroke-width:1.0;" x1="637" x2="922" y1="365.4922" y2="365.4922"/><text fill="#000000" font-family="sans-serif" font-size="13" lengthAdjust="spacing" textLength="195" x="649" y="360.4263">Tageseinnahmen weitergeben</text><polygon fill="#A80036" points="320,390.625,310,394.625,320,398.625,316,394.625" style="stroke:#A80036;stroke-width:1.0;"/><line style="stroke:#A80036;stroke-width:1.0;" x1="314" x2="631" y1="394.625" y2="394.625"/><text fill="#000000" font-family="sans-serif" font-size="13" lengthAdjust="spacing" textLength="299" x="326" y="389.5591">Rueckmeldung: Tageseinnahmen weitergeben</text><polygon fill="#A80036" points="81,419.7578,71,423.7578,81,427.7578,77,423.7578" style="stroke:#A80036;stroke-width:1.0;"/><line style="stroke:#A80036;stroke-width:1.0;stroke-dasharray:2.0,2.0;" x1="75" x2="308" y1="423.7578" y2="423.7578"/><text fill="#000000" font-family="sans-serif" font-size="13" lengthAdjust="spacing" textLength="215" x="87" y="418.6919">Rueckmeldung: Tageseinnahmen</text><!--MD5=[c9411eb5b973c76f0875477c3c20954d]
@startuml
actor Parkhausbesitzer


boundary Tageseinnahmen_sicht
control Servlet
control StatisticsHandler
control ServerData
entity History


Parkhausbesitzer-> Tageseinnahmen_sicht: Fragt Tageseinnahmen ab

Tageseinnahmen_sicht-> Servlet: Fragt Controller an

Servlet-> StatisticsHandler: Servlet leitet Anfrage an StatisticsHandler

StatisticsHandler-> ServerData: Fragt Daten zu den Tageseinnahmen bei ServerData an

ServerData-> History: Tageseinnahmen abfragen

History-> ServerData: Tageseinnahmen weitergeben

ServerData->StatisticsHandler: Tageseinnahmen weitergeben

StatisticsHandler->StatisticsHandler: Tageseinnahmen errechnen

StatisticsHandler-> Servlet: Tageseinnahmen weitergeben

Servlet-> Tageseinnahmen_sicht: Rueckmeldung: Tageseinnahmen weitergeben

Tageseinnahmen_sicht- -> Parkhausbesitzer: Rueckmeldung: Tageseinnahmen
@enduml

PlantUML version 1.2021.9beta2(Unknown compile time)
(GPL source distribution)
Java Runtime: Java(TM) SE Runtime Environment
JVM: Java HotSpot(TM) 64-Bit Server VM
Default Encoding: UTF-8
Language: en
Country: US
--></g></svg>