<?xml version="1.0" encoding="UTF-8" standalone="no"?><svg xmlns="http://www.w3.org/2000/svg" xmlns:xlink="http://www.w3.org/1999/xlink" contentScriptType="application/ecmascript" contentStyleType="text/css" height="752px" preserveAspectRatio="none" style="width:548px;height:752px;background:#FFFFFF;" version="1.1" viewBox="0 0 548 752" width="548px" zoomAndPan="magnify"><defs><filter height="300%" id="f9eoavnu00ddx" width="300%" x="-1" y="-1"><feGaussianBlur result="blurOut" stdDeviation="2.0"/><feColorMatrix in="blurOut" result="blurOut2" type="matrix" values="0 0 0 0 0 0 0 0 0 0 0 0 0 0 0 0 0 0 .4 0"/><feOffset dx="4.0" dy="4.0" in="blurOut2" result="blurOut3"/><feBlend in="SourceGraphic" in2="blurOut3" mode="normal"/></filter></defs><g><!--MD5=[7584dd6fbaed947f45175083ecbd0502]
cluster Parkhaus--><rect fill="#FFFFFF" filter="url(#f9eoavnu00ddx)" height="733" style="stroke:#000000;stroke-width:1.5;" width="272" x="98" y="7"/><text fill="#000000" font-family="sans-serif" font-size="14" font-weight="bold" lengthAdjust="spacing" textLength="75" x="196.5" y="21.9951">Parkhaus</text><ellipse cx="233.8925" cy="145.0785" fill="#FEFECE" filter="url(#f9eoavnu00ddx)" rx="63.3925" ry="15.0785" style="stroke:#A80036;stroke-width:1.5;"/><text fill="#000000" font-family="sans-serif" font-size="14" lengthAdjust="spacing" textLength="74" x="193.8925" y="148.8261">ausparken</text><ellipse cx="234.0625" cy="296.0125" fill="#FEFECE" filter="url(#f9eoavnu00ddx)" rx="63.0625" ry="15.0125" style="stroke:#A80036;stroke-width:1.5;"/><text fill="#000000" font-family="sans-serif" font-size="14" lengthAdjust="spacing" textLength="73" x="194.5625" y="299.7601">einparken</text><ellipse cx="234.209" cy="370.0418" fill="#FEFECE" filter="url(#f9eoavnu00ddx)" rx="108.209" ry="24.0418" style="stroke:#A80036;stroke-width:1.5;"/><text fill="#000000" font-family="sans-serif" font-size="14" lengthAdjust="spacing" textLength="182" x="143.209" y="372.8885">Bisherige Kosten abrufen</text><ellipse cx="233.8658" cy="447.7732" fill="#FEFECE" filter="url(#f9eoavnu00ddx)" rx="81.8658" ry="18.7732" style="stroke:#A80036;stroke-width:1.5;"/><text fill="#000000" font-family="sans-serif" font-size="14" lengthAdjust="spacing" textLength="123" x="171.3805" y="450.9463">Parkplatz suchen</text><ellipse cx="233.7877" cy="525.8575" fill="#FEFECE" filter="url(#f9eoavnu00ddx)" rx="107.2877" ry="23.8575" style="stroke:#A80036;stroke-width:1.5;"/><text fill="#000000" font-family="sans-serif" font-size="14" lengthAdjust="spacing" textLength="180" x="143.7877" y="528.7042">Öffnungszeiten einsehen</text><ellipse cx="233.8717" cy="609.8743" fill="#FEFECE" filter="url(#f9eoavnu00ddx)" rx="112.3717" ry="24.8743" style="stroke:#A80036;stroke-width:1.5;"/><text fill="#000000" font-family="sans-serif" font-size="14" lengthAdjust="spacing" textLength="191" x="138.3717" y="612.721">Tageseinnahmen einsehen</text><ellipse cx="233.834" cy="696.8668" fill="#FEFECE" filter="url(#f9eoavnu00ddx)" rx="119.834" ry="26.3668" style="stroke:#A80036;stroke-width:1.5;"/><text fill="#000000" font-family="sans-serif" font-size="14" lengthAdjust="spacing" textLength="207" x="130.334" y="699.7135">Wocheneinnahmen einsehen</text><ellipse cx="233.9652" cy="60.193" fill="#FEFECE" filter="url(#f9eoavnu00ddx)" rx="78.9652" ry="18.193" style="stroke:#A80036;stroke-width:1.5;"/><text fill="#000000" font-family="sans-serif" font-size="14" lengthAdjust="spacing" textLength="116" x="173.9" y="63.6886">Ticket bezahlen</text><ellipse cx="233.9293" cy="211.7859" fill="#FEFECE" filter="url(#f9eoavnu00ddx)" rx="71.9293" ry="16.7859" style="stroke:#A80036;stroke-width:1.5;"/><text fill="#000000" font-family="sans-serif" font-size="14" lengthAdjust="spacing" textLength="98" x="181.9293" y="215.5334">Ticket ziehen</text><!--MD5=[dd4341063b751316448a59cfefccaa04]
entity Kunde--><ellipse cx="28.5" cy="339" fill="#FEFECE" filter="url(#f9eoavnu00ddx)" rx="8" ry="8" style="stroke:#A80036;stroke-width:1.5;"/><path d="M28.5,347 L28.5,374 M15.5,355 L41.5,355 M28.5,374 L15.5,389 M28.5,374 L41.5,389 " fill="none" filter="url(#f9eoavnu00ddx)" style="stroke:#A80036;stroke-width:1.5;"/><text fill="#000000" font-family="sans-serif" font-size="14" lengthAdjust="spacing" textLength="45" x="6" y="407.4951">Kunde</text><!--MD5=[90accf459591bdbc5731a61ac958ef7c]
entity Parkhausbesitzer--><ellipse cx="479" cy="617" fill="#FEFECE" filter="url(#f9eoavnu00ddx)" rx="8" ry="8" style="stroke:#A80036;stroke-width:1.5;"/><path d="M479,625 L479,652 M466,633 L492,633 M479,652 L466,667 M479,652 L492,667 " fill="none" filter="url(#f9eoavnu00ddx)" style="stroke:#A80036;stroke-width:1.5;"/><text fill="#000000" font-family="sans-serif" font-size="14" lengthAdjust="spacing" textLength="124" x="417" y="685.4951">Parkhausbesitzer</text><!--MD5=[187682f9b4f479a9b8d9bf5993c0d9f4]
link Kunde to ausparken--><path d="M30.7997,329.443 C34.4712,285.477 47.225,216.34 90,177 C111.534,157.195 142.578,148.726 170.243,145.405 " fill="none" id="Kunde-ausparken" style="stroke:#A80036;stroke-width:1.0;"/><!--MD5=[1ee9a5364dfa92f64611fd957ea46ff4]
link Kunde to einparken--><path d="M51.2431,351.829 C62.2502,343.46 76.1836,334.062 90,328 C117.956,315.733 151.124,307.935 178.475,303.112 " fill="none" id="Kunde-einparken" style="stroke:#A80036;stroke-width:1.0;"/><!--MD5=[a47c0b9887c5f01adf8300110167ea5a]
link Kunde to Bisherige Kosten abrufen--><path d="M51.2781,370 C69.6317,370 97.3634,370 125.673,370 " fill="none" id="Kunde-Bisherige Kosten abrufen" style="stroke:#A80036;stroke-width:1.0;"/><!--MD5=[8399ba4c8d3978b48555f86bc2791a9b]
link Kunde to Parkplatz suchen--><path d="M51.0345,387.8 C62.102,396.184 76.1487,405.702 90,412 C114.354,423.073 142.653,431.105 167.619,436.733 " fill="none" id="Kunde-Parkplatz suchen" style="stroke:#A80036;stroke-width:1.0;"/><!--MD5=[84f9cc29296e18f4864d29130949dfbb]
link Kunde to Öffnungszeiten einsehen--><path d="M41.7521,410.742 C51.1872,435.539 66.6361,465.996 90,485 C105.6277,497.712 125.008,506.483 144.402,512.536 " fill="none" id="Kunde-Öffnungszeiten einsehen" style="stroke:#A80036;stroke-width:1.0;"/><!--MD5=[7ac57517cc95bfb73606da39e49aa3dc]
link Tageseinnahmen einsehen to Parkhausbesitzer--><path d="M326.522,624.312 C356.658,629.025 389.419,634.148 416.74,638.42 " fill="none" id="Tageseinnahmen einsehen-Parkhausbesitzer" style="stroke:#A80036;stroke-width:1.0;"/><!--MD5=[1f00f93c43b7e0c8e607f51f804f4f47]
link Wocheneinnahmen einsehen to Parkhausbesitzer--><path d="M323.072,679.2406 C354.176,672.9686 388.449,666.0575 416.835,660.3338 " fill="none" id="Wocheneinnahmen einsehen-Parkhausbesitzer" style="stroke:#A80036;stroke-width:1.0;"/><!--MD5=[d35b3852657291858e43174b98ddae8a]
link ausparken to Ticket bezahlen--><path d="M234,129.804 C234,116.875 234,98.1 234,83.277 " fill="none" id="ausparken-to-Ticket bezahlen" style="stroke:#A80036;stroke-width:1.0;stroke-dasharray:7.0,7.0;"/><polygon fill="#A80036" points="234,78.013,230,87.013,234,83.013,238,87.013,234,78.013" style="stroke:#A80036;stroke-width:1.0;"/><text fill="#000000" font-family="sans-serif" font-size="13" lengthAdjust="spacing" textLength="61" x="192" y="108.5669">«include»</text><!--MD5=[b570dd57ffe60511edddabecf0201a36]
link einparken to Ticket ziehen--><path d="M234,280.982 C234,268.038 234,249.162 234,234.427 " fill="none" id="einparken-to-Ticket ziehen" style="stroke:#A80036;stroke-width:1.0;stroke-dasharray:7.0,7.0;"/><polygon fill="#A80036" points="234,229.205,230,238.205,234,234.205,238,238.205,234,229.205" style="stroke:#A80036;stroke-width:1.0;"/><text fill="#000000" font-family="sans-serif" font-size="13" lengthAdjust="spacing" textLength="61" x="192" y="259.5669">«include»</text><!--MD5=[4f64c7782281d1a9fd051878114187ea]
@startuml
left to right direction 

skinparam packageStyle rectangle 

actor Kunde 

actor Parkhausbesitzer 

rectangle Parkhaus { 

  Kunde - - (ausparken) 

  Kunde - - (einparken) 

  Kunde - - (Bisherige Kosten abrufen) 
  
  Kunde - - (Parkplatz suchen)
  
  Kunde - - (Öffnungszeiten einsehen)

  (Tageseinnahmen einsehen) - - Parkhausbesitzer 

  (Wocheneinnahmen einsehen) - - Parkhausbesitzer 

  (ausparken) .> (Ticket bezahlen) : <<include>> 

  (einparken) .> (Ticket ziehen) : <<include>> 

}
@enduml

PlantUML version 1.2021.9beta2(Unknown compile time)
(GPL source distribution)
Java Runtime: Java(TM) SE Runtime Environment
JVM: Java HotSpot(TM) 64-Bit Server VM
Default Encoding: UTF-8
Language: en
Country: US
--></g></svg>