<?xml version="1.0" encoding="UTF-8" standalone="no"?><svg xmlns="http://www.w3.org/2000/svg" xmlns:xlink="http://www.w3.org/1999/xlink" contentScriptType="application/ecmascript" contentStyleType="text/css" height="189px" preserveAspectRatio="none" style="width:1747px;height:189px;background:#FFFFFF;" version="1.1" viewBox="0 0 1747 189" width="1747px" zoomAndPan="magnify"><defs><filter height="300%" id="f7svjzsc4efh8" width="300%" x="-1" y="-1"><feGaussianBlur result="blurOut" stdDeviation="2.0"/><feColorMatrix in="blurOut" result="blurOut2" type="matrix" values="0 0 0 0 0 0 0 0 0 0 0 0 0 0 0 0 0 0 .4 0"/><feOffset dx="4.0" dy="4.0" in="blurOut2" result="blurOut3"/><feBlend in="SourceGraphic" in2="blurOut3" mode="normal"/></filter></defs><g><!--MD5=[4bfdf88114caf01b476e403c90f639a0]
entity tomcat--><polygon fill="#FEFECE" filter="url(#f7svjzsc4efh8)" points="16,69,26,59,293,59,293,119.5938,283,129.5938,16,129.5938,16,69" style="stroke:#000000;stroke-width:1.5;"/><line style="stroke:#000000;stroke-width:1.5;" x1="283" x2="293" y1="69" y2="59"/><line style="stroke:#000000;stroke-width:1.5;" x1="16" x2="283" y1="69" y2="69"/><line style="stroke:#000000;stroke-width:1.5;" x1="283" x2="283" y1="69" y2="129.5938"/><text fill="#000000" font-family="sans-serif" font-size="14" lengthAdjust="spacing" textLength="106" x="31" y="91.9951">Tomcat Server</text><line style="stroke:#000000;stroke-width:1.0;" x1="16" x2="283" y1="95.2969" y2="95.2969"/><line style="stroke:#000000;stroke-width:1.0;" x1="283" x2="293" y1="95.2969" y2="85.2969"/><line style="stroke:#000000;stroke-width:1.0;" x1="16" x2="283" y1="97.2969" y2="97.2969"/><line style="stroke:#000000;stroke-width:1.0;" x1="283" x2="293" y1="97.2969" y2="87.2969"/><text fill="#000000" font-family="sans-serif" font-size="14" lengthAdjust="spacing" textLength="237" x="31" y="112.292">Initializes Parkhaus:war exploded</text><!--MD5=[9b50232802efdec09056d2fe94d4716d]
entity artifacts--><rect fill="#FEFECE" filter="url(#f7svjzsc4efh8)" height="87.1875" style="stroke:#000000;stroke-width:1.5;" width="263" x="353" y="51"/><text fill="#000000" font-family="sans-serif" font-size="14" lengthAdjust="spacing" textLength="77" x="363" y="66.9951">«artifacts»</text><line style="stroke:#000000;stroke-width:1.0;" x1="354" x2="615" y1="70.2969" y2="70.2969"/><line style="stroke:#000000;stroke-width:1.0;" x1="354" x2="615" y1="72.2969" y2="72.2969"/><text fill="#000000" font-family="sans-serif" font-size="14" lengthAdjust="spacing" textLength="165" x="363" y="87.292">Parkhaus:war exploded</text><line style="stroke:#000000;stroke-width:1.0;" x1="354" x2="615" y1="94.5938" y2="94.5938"/><line style="stroke:#000000;stroke-width:1.0;" x1="354" x2="615" y1="96.5938" y2="96.5938"/><text fill="#000000" font-family="sans-serif" font-size="14" lengthAdjust="spacing" textLength="166" x="363" y="111.5889">Initializes Kundenpanel</text><text fill="#000000" font-family="sans-serif" font-size="14" lengthAdjust="spacing" textLength="243" x="363" y="127.8857">Initializes Parkhausbesitzer_panel</text><!--MD5=[92c7d64fd241b45ca06ade7896ac41ed]
entity kundenpanel--><polygon fill="#FEFECE" filter="url(#f7svjzsc4efh8)" points="699.5,16,709.5,6,863.5,6,863.5,66.5938,853.5,76.5938,699.5,76.5938,699.5,16" style="stroke:#000000;stroke-width:1.5;"/><line style="stroke:#000000;stroke-width:1.5;" x1="853.5" x2="863.5" y1="16" y2="6"/><line style="stroke:#000000;stroke-width:1.5;" x1="699.5" x2="853.5" y1="16" y2="16"/><line style="stroke:#000000;stroke-width:1.5;" x1="853.5" x2="853.5" y1="16" y2="76.5938"/><text fill="#000000" font-family="sans-serif" font-size="14" lengthAdjust="spacing" textLength="85" x="714.5" y="38.9951">Kundepanel</text><line style="stroke:#000000;stroke-width:1.0;" x1="699.5" x2="853.5" y1="42.2969" y2="42.2969"/><line style="stroke:#000000;stroke-width:1.0;" x1="853.5" x2="863.5" y1="42.2969" y2="32.2969"/><line style="stroke:#000000;stroke-width:1.0;" x1="699.5" x2="853.5" y1="44.2969" y2="44.2969"/><line style="stroke:#000000;stroke-width:1.0;" x1="853.5" x2="863.5" y1="44.2969" y2="34.2969"/><text fill="#000000" font-family="sans-serif" font-size="14" lengthAdjust="spacing" textLength="124" x="714.5" y="59.292">Initializes Servlet</text><!--MD5=[5da457b721290378801796ace301d8ee]
entity parkhausbesitzer_panel--><polygon fill="#FEFECE" filter="url(#f7svjzsc4efh8)" points="676,122,686,112,887,112,887,172.5938,877,182.5938,676,182.5938,676,122" style="stroke:#000000;stroke-width:1.5;"/><line style="stroke:#000000;stroke-width:1.5;" x1="877" x2="887" y1="122" y2="112"/><line style="stroke:#000000;stroke-width:1.5;" x1="676" x2="877" y1="122" y2="122"/><line style="stroke:#000000;stroke-width:1.5;" x1="877" x2="877" y1="122" y2="182.5938"/><text fill="#000000" font-family="sans-serif" font-size="14" lengthAdjust="spacing" textLength="171" x="691" y="144.9951">Parkhausbesitzer_panel</text><line style="stroke:#000000;stroke-width:1.0;" x1="676" x2="877" y1="148.2969" y2="148.2969"/><line style="stroke:#000000;stroke-width:1.0;" x1="877" x2="887" y1="148.2969" y2="138.2969"/><line style="stroke:#000000;stroke-width:1.0;" x1="676" x2="877" y1="150.2969" y2="150.2969"/><line style="stroke:#000000;stroke-width:1.0;" x1="877" x2="887" y1="150.2969" y2="140.2969"/><text fill="#000000" font-family="sans-serif" font-size="14" lengthAdjust="spacing" textLength="124" x="691" y="165.292">Initializes Servlet</text><!--MD5=[c98d503b3d09c809ef6bb80e36a7a41c]
entity serverdata--><polygon fill="#FEFECE" filter="url(#f7svjzsc4efh8)" points="1514,69,1524,59,1730,59,1730,119.5938,1720,129.5938,1514,129.5938,1514,69" style="stroke:#000000;stroke-width:1.5;"/><line style="stroke:#000000;stroke-width:1.5;" x1="1720" x2="1730" y1="69" y2="59"/><line style="stroke:#000000;stroke-width:1.5;" x1="1514" x2="1720" y1="69" y2="69"/><line style="stroke:#000000;stroke-width:1.5;" x1="1720" x2="1720" y1="69" y2="129.5938"/><text fill="#000000" font-family="sans-serif" font-size="14" lengthAdjust="spacing" textLength="81" x="1529" y="91.9951">ServerData</text><line style="stroke:#000000;stroke-width:1.0;" x1="1514" x2="1720" y1="95.2969" y2="95.2969"/><line style="stroke:#000000;stroke-width:1.0;" x1="1720" x2="1730" y1="95.2969" y2="85.2969"/><line style="stroke:#000000;stroke-width:1.0;" x1="1514" x2="1720" y1="97.2969" y2="97.2969"/><line style="stroke:#000000;stroke-width:1.0;" x1="1720" x2="1730" y1="97.2969" y2="87.2969"/><text fill="#000000" font-family="sans-serif" font-size="14" lengthAdjust="spacing" textLength="176" x="1529" y="112.292">ArrayList&lt;Body&gt; history</text><!--MD5=[6916c98725e473243efa43d68460457e]
entity statisticshandler--><polygon fill="#FEFECE" filter="url(#f7svjzsc4efh8)" points="1242,41,1252,31,1454,31,1454,148.4844,1444,158.4844,1242,158.4844,1242,41" style="stroke:#000000;stroke-width:1.5;"/><line style="stroke:#000000;stroke-width:1.5;" x1="1444" x2="1454" y1="41" y2="31"/><line style="stroke:#000000;stroke-width:1.5;" x1="1242" x2="1444" y1="41" y2="41"/><line style="stroke:#000000;stroke-width:1.5;" x1="1444" x2="1444" y1="41" y2="158.4844"/><text fill="#000000" font-family="sans-serif" font-size="14" lengthAdjust="spacing" textLength="123" x="1257" y="63.9951">StatisitcsHandler</text><line style="stroke:#000000;stroke-width:1.0;" x1="1242" x2="1444" y1="67.2969" y2="67.2969"/><line style="stroke:#000000;stroke-width:1.0;" x1="1444" x2="1454" y1="67.2969" y2="57.2969"/><line style="stroke:#000000;stroke-width:1.0;" x1="1242" x2="1444" y1="69.2969" y2="69.2969"/><line style="stroke:#000000;stroke-width:1.0;" x1="1444" x2="1454" y1="69.2969" y2="59.2969"/><text fill="#000000" font-family="sans-serif" font-size="14" lengthAdjust="spacing" textLength="149" x="1257" y="84.292">dailyIncome() double</text><text fill="#000000" font-family="sans-serif" font-size="14" lengthAdjust="spacing" textLength="166" x="1257" y="100.5889">weeklyIncome() double</text><text fill="#000000" font-family="sans-serif" font-size="14" lengthAdjust="spacing" textLength="150" x="1257" y="116.8857">customerView() float</text><line style="stroke:#000000;stroke-width:1.0;" x1="1242" x2="1444" y1="124.1875" y2="124.1875"/><line style="stroke:#000000;stroke-width:1.0;" x1="1444" x2="1454" y1="124.1875" y2="114.1875"/><line style="stroke:#000000;stroke-width:1.0;" x1="1242" x2="1444" y1="126.1875" y2="126.1875"/><line style="stroke:#000000;stroke-width:1.0;" x1="1444" x2="1454" y1="126.1875" y2="116.1875"/><text fill="#000000" font-family="sans-serif" font-size="14" lengthAdjust="spacing" textLength="172" x="1257" y="141.1826">Uses ServerData.history</text><!--MD5=[f331d493c352d3de382c5042636ddd87]
entity servlet--><polygon fill="#FEFECE" filter="url(#f7svjzsc4efh8)" points="947,57,957,47,1182,47,1182,131.8906,1172,141.8906,947,141.8906,947,57" style="stroke:#000000;stroke-width:1.5;"/><line style="stroke:#000000;stroke-width:1.5;" x1="1172" x2="1182" y1="57" y2="47"/><line style="stroke:#000000;stroke-width:1.5;" x1="947" x2="1172" y1="57" y2="57"/><line style="stroke:#000000;stroke-width:1.5;" x1="1172" x2="1172" y1="57" y2="141.8906"/><text fill="#000000" font-family="sans-serif" font-size="14" lengthAdjust="spacing" textLength="52" x="962" y="79.9951">Servlet</text><line style="stroke:#000000;stroke-width:1.0;" x1="947" x2="1172" y1="83.2969" y2="83.2969"/><line style="stroke:#000000;stroke-width:1.0;" x1="1172" x2="1182" y1="83.2969" y2="73.2969"/><line style="stroke:#000000;stroke-width:1.0;" x1="947" x2="1172" y1="85.2969" y2="85.2969"/><line style="stroke:#000000;stroke-width:1.0;" x1="1172" x2="1182" y1="85.2969" y2="75.2969"/><text fill="#000000" font-family="sans-serif" font-size="14" lengthAdjust="spacing" textLength="89" x="962" y="100.292">doGet() void</text><line style="stroke:#000000;stroke-width:1.0;" x1="947" x2="1172" y1="107.5938" y2="107.5938"/><line style="stroke:#000000;stroke-width:1.0;" x1="1172" x2="1182" y1="107.5938" y2="97.5938"/><line style="stroke:#000000;stroke-width:1.0;" x1="947" x2="1172" y1="109.5938" y2="109.5938"/><line style="stroke:#000000;stroke-width:1.0;" x1="1172" x2="1182" y1="109.5938" y2="99.5938"/><text fill="#000000" font-family="sans-serif" font-size="14" lengthAdjust="spacing" textLength="195" x="962" y="124.5889">initializes StatisticsHandler</text><!--MD5=[cb587c4e46a840aac586150413c38398]
link tomcat to artifacts--><path codeLine="55" d="M293.176,94.5 C312.986,94.5 333.323,94.5 352.989,94.5 " fill="none" id="tomcat-artifacts" style="stroke:#A80036;stroke-width:1.0;"/><!--MD5=[e0ac578a1dab7571943ae5e93b65ebb0]
link artifacts to kundenpanel--><path codeLine="56" d="M616.18,71.022 C644.383,65.955 673.417,60.739 699.085,56.127 " fill="none" id="artifacts-kundenpanel" style="stroke:#A80036;stroke-width:1.0;"/><!--MD5=[3ebaf3caeaa1d1f14f0cdd7a8b6c1e75]
link artifacts to parkhausbesitzer_panel--><path codeLine="57" d="M616.18,117.978 C636.06,121.5498 656.354,125.1959 675.591,128.652 " fill="none" id="artifacts-parkhausbesitzer_panel" style="stroke:#A80036;stroke-width:1.0;"/><!--MD5=[5fb2fc0d31a3ec19d3557e07509c0564]
link kundenpanel to servlet--><path codeLine="58" d="M863.777,56.83 C889.711,61.721 918.941,67.234 946.873,72.503 " fill="none" id="kundenpanel-servlet" style="stroke:#A80036;stroke-width:1.0;"/><!--MD5=[c49f2a5f22a7bb84b999d5d61c583df5]
link parkhausbesitzer_panel to servlet--><path codeLine="59" d="M887.134,127.7648 C906.639,124.0859 927.132,120.2206 946.969,116.4792 " fill="none" id="parkhausbesitzer_panel-servlet" style="stroke:#A80036;stroke-width:1.0;"/><!--MD5=[1ff37471ad3bb1034c58cc66ab1bfbbd]
link servlet to statisticshandler--><path codeLine="60" d="M1182.03,94.5 C1201.84,94.5 1222.32,94.5 1241.82,94.5 " fill="none" id="servlet-statisticshandler" style="stroke:#A80036;stroke-width:1.0;"/><!--MD5=[d780f155c6d8e1705998d61e248a2b17]
link statisticshandler to serverdata--><path codeLine="61" d="M1454.16,94.5 C1473.75,94.5 1494.23,94.5 1513.87,94.5 " fill="none" id="statisticshandler-serverdata" style="stroke:#A80036;stroke-width:1.0;"/><!--MD5=[be72dc619e400249a834e8ea0a23c927]
@startuml
left to right direction
node tomcat [
Tomcat Server
====
Initializes Parkhaus:war exploded
]

card artifacts [
<<artifacts>>
====
Parkhaus:war exploded
====
Initializes Kundenpanel
Initializes Parkhausbesitzer_panel
]

node kundenpanel [
Kundepanel
====
Initializes Servlet
]

node parkhausbesitzer_panel [
Parkhausbesitzer_panel
====
Initializes Servlet
]

node serverdata[
ServerData
====
ArrayList<Body> history
]


node statisticshandler[
StatisitcsHandler
====
dailyIncome() double
weeklyIncome() double
customerView() float
====
Uses ServerData.history
]


node servlet[
Servlet
====
doGet() void
====
initializes StatisticsHandler
]

tomcat  - - artifacts
artifacts - -kundenpanel
artifacts - - parkhausbesitzer_panel
kundenpanel - - servlet
parkhausbesitzer_panel - - servlet
servlet - - statisticshandler
statisticshandler - - serverdata
@enduml

PlantUML version 1.2021.9beta2(Unknown compile time)
(GPL source distribution)
Java Runtime: Java(TM) SE Runtime Environment
JVM: Java HotSpot(TM) 64-Bit Server VM
Default Encoding: UTF-8
Language: en
Country: US
--></g></svg>